<svg xmlns="http://www.w3.org/2000/svg" width="400" height="400" viewBox="0 0 400 400"><rect width="100%" height="100%" fill="#cffafe"/><path fill="#06b6d4" d="m94.565 188.25-1.07 2.03q-.19.34-.41.49t-.54.15q-.33 0-.72-.25-.4-.24-.94-.55-.54-.3-1.27-.55t-1.72-.25q-.9 0-1.57.22-.67.21-1.13.6-.45.38-.68.92-.22.53-.22 1.17 0 .82.45 1.36.46.55 1.21.93.75.39 1.71.69t1.97.65q1.01.34 1.97.8.96.45 1.71 1.15t1.21 1.7q.46 1.01.46 2.45 0 1.57-.54 2.94t-1.57 2.38q-1.03 1.02-2.52 1.6-1.49.59-3.41.59-1.1 0-2.17-.22t-2.06-.62q-.98-.4-1.85-.96-.86-.56-1.53-1.24l1.26-2.07q.16-.22.42-.37.25-.16.54-.16.4 0 .87.33.46.33 1.1.73t1.5.73q.85.33 2.05.33 1.84 0 2.85-.88 1.01-.87 1.01-2.5 0-.91-.46-1.49-.45-.57-1.21-.97-.75-.39-1.71-.66t-1.95-.59-1.95-.77-1.71-1.17q-.76-.72-1.21-1.8-.46-1.08-.46-2.66 0-1.27.51-2.47.5-1.2 1.46-2.12.96-.93 2.37-1.49t3.23-.56q2.05 0 3.78.64 1.72.64 2.94 1.79m6.66 10.86h7.45q0-.76-.21-1.44-.22-.68-.65-1.2-.43-.51-1.1-.8-.66-.3-1.54-.3-1.71 0-2.7.98-.98.97-1.25 2.76m10.08 2.39h-10.16q.09 1.26.44 2.18.36.92.93 1.52.58.6 1.37.9.79.29 1.75.29t1.66-.22q.69-.22 1.21-.5.52-.27.92-.49.39-.23.76-.23.49 0 .73.37l1.14 1.44q-.66.77-1.47 1.29-.82.52-1.71.83t-1.81.44-1.78.13q-1.71 0-3.18-.57-1.48-.57-2.56-1.68-1.09-1.11-1.72-2.75-.62-1.64-.62-3.8 0-1.68.54-3.16.55-1.48 1.56-2.58 1.02-1.09 2.48-1.73 1.47-.64 3.31-.64 1.55 0 2.86.49 1.31.5 2.26 1.45.94.95 1.48 2.34.53 1.38.53 3.16 0 .89-.19 1.21-.19.31-.73.31m16.68-6.67-1.04 1.44q-.17.22-.34.35t-.49.13q-.3 0-.59-.19-.29-.18-.69-.41-.4-.24-.95-.42t-1.37-.18q-1.04 0-1.82.37-.79.38-1.31 1.08-.52.71-.77 1.71-.26 1-.26 2.26 0 1.31.28 2.34.28 1.02.81 1.72.53.69 1.28 1.05t1.7.36q.94 0 1.52-.23.59-.23.99-.51t.69-.51q.3-.24.67-.24.48 0 .72.37l1.13 1.44q-.65.77-1.42 1.29t-1.59.83q-.83.31-1.7.44t-1.73.13q-1.52 0-2.87-.57-1.34-.57-2.35-1.65-1.01-1.09-1.59-2.67-.59-1.57-.59-3.59 0-1.81.52-3.35.52-1.55 1.53-2.67 1.01-1.13 2.5-1.77t3.42-.64q1.84 0 3.23.59 1.38.59 2.48 1.7m12.82-2.04h3.95v16.42h-2.41q-.79 0-1-.72l-.27-1.31q-1.01 1.02-2.22 1.65-1.22.64-2.87.64-1.34 0-2.37-.46t-1.74-1.29q-.7-.83-1.06-1.97-.36-1.15-.36-2.52v-10.44h3.95v10.44q0 1.5.7 2.32.69.83 2.08.83 1.03 0 1.92-.46.9-.45 1.7-1.25zm11.34 1 .24 1.85q.77-1.47 1.83-2.31 1.05-.84 2.49-.84 1.14 0 1.83.5l-.26 2.96q-.08.28-.23.4t-.41.12q-.24 0-.71-.08t-.92-.08q-.66 0-1.17.2-.51.19-.92.55t-.72.87-.58 1.17v10.11h-3.95v-16.42h2.32q.6 0 .84.22t.32.78m8.58-1h3.97v16.42h-3.97zm4.51-4.78q0 .51-.21.96-.2.45-.55.78-.34.34-.81.54-.46.2-.99.2-.51 0-.97-.2-.45-.2-.79-.54-.33-.33-.53-.78t-.2-.96q0-.53.2-.99.2-.47.53-.8.34-.34.79-.54.46-.2.97-.2.53 0 .99.2.47.2.81.54.35.33.55.8.21.46.21.99m8.96 21.46q-2.14 0-3.29-1.21-1.14-1.21-1.14-3.34v-9.17h-1.68q-.32 0-.54-.2-.23-.21-.23-.63v-1.57l2.64-.43.83-4.48q.08-.32.31-.49.22-.18.57-.18h2.05v5.17h4.39v2.81h-4.39v8.9q0 .77.38 1.2.37.43 1.03.43.37 0 .62-.09.24-.08.43-.18.18-.1.33-.18.14-.09.28-.09.18 0 .29.09.11.08.24.26l1.19 1.92q-.87.72-1.99 1.09t-2.32.37m18.18-16.68h3.17l-8.95 20.93q-.17.42-.45.63-.28.22-.86.22h-2.94l3.07-6.59-6.64-15.19h3.47q.46 0 .73.23.26.22.39.51l3.49 8.51q.17.43.29.87.12.43.24.88.14-.45.28-.89.15-.44.32-.87l3.3-8.5q.13-.32.42-.53.3-.21.67-.21m28.13-3.29h-10.28v6.85h8.68v3.44h-8.68v9.42h-4.32v-23.14h14.6zm10.16 3.04q1.82 0 3.32.59 1.49.59 2.56 1.68 1.06 1.09 1.64 2.66.57 1.56.57 3.5 0 1.95-.57 3.52-.58 1.57-1.64 2.67-1.07 1.11-2.56 1.7-1.5.59-3.32.59-1.84 0-3.35-.59-1.5-.59-2.57-1.7-1.06-1.1-1.64-2.67-.59-1.57-.59-3.52 0-1.94.59-3.5.58-1.57 1.64-2.66 1.07-1.09 2.57-1.68 1.51-.59 3.35-.59m0 13.87q2.04 0 3.03-1.38.98-1.37.98-4.03 0-2.65-.98-4.05-.99-1.39-3.03-1.39-2.08 0-3.08 1.4t-1 4.04 1 4.03q1 1.38 3.08 1.38m23.92-11.58-1.04 1.44q-.18.22-.35.35t-.49.13q-.3 0-.59-.19-.29-.18-.69-.41-.4-.24-.95-.42t-1.37-.18q-1.04 0-1.82.37-.78.38-1.3 1.08-.52.71-.78 1.71t-.26 2.26q0 1.31.28 2.34.28 1.02.81 1.72.53.69 1.28 1.05t1.7.36q.94 0 1.53-.23.58-.23.98-.51t.7-.51q.29-.24.66-.24.48 0 .72.37l1.14 1.44q-.66.77-1.43 1.29t-1.59.83-1.7.44q-.87.13-1.73.13-1.52 0-2.87-.57-1.34-.57-2.35-1.65-1.01-1.09-1.59-2.67-.58-1.57-.58-3.59 0-1.81.52-3.35.52-1.55 1.52-2.67 1.01-1.13 2.5-1.77t3.42-.64q1.84 0 3.23.59 1.38.59 2.49 1.7m12.81-2.04h3.95v16.42h-2.41q-.79 0-.99-.72l-.28-1.31q-1 1.02-2.22 1.65-1.22.64-2.86.64-1.35 0-2.38-.46t-1.74-1.29q-.7-.83-1.06-1.97-.36-1.15-.36-2.52v-10.44h3.95v10.44q0 1.5.7 2.32.69.83 2.09.83 1.02 0 1.92-.46.89-.45 1.69-1.25zm18.77 1.78-.9 1.42q-.16.26-.33.36-.18.11-.45.11-.29 0-.62-.16-.32-.16-.76-.36-.43-.2-.98-.36t-1.3-.16q-1.17 0-1.84.49-.66.5-.66 1.3 0 .53.34.89.35.36.92.63.56.27 1.28.49.72.21 1.47.47.74.26 1.46.58.72.33 1.29.84.57.5.91 1.2.35.71.35 1.7 0 1.18-.43 2.18-.42 1-1.25 1.73-.84.73-2.06 1.14t-2.82.41q-.85 0-1.66-.16-.81-.15-1.55-.42-.75-.27-1.38-.64t-1.11-.8l.91-1.5q.18-.28.42-.42t.61-.14q.36 0 .69.2.33.21.76.45t1.02.45q.58.21 1.48.21.7 0 1.21-.17.5-.17.83-.44t.48-.63.15-.75q0-.57-.34-.94-.35-.37-.92-.64-.56-.27-1.29-.49-.73-.21-1.49-.47t-1.49-.6-1.29-.87q-.57-.53-.92-1.3-.34-.77-.34-1.85 0-1.01.4-1.92.4-.92 1.18-1.6.77-.68 1.93-1.08 1.16-.41 2.68-.41 1.7 0 3.09.56t2.32 1.47m6.27 4.54h7.46q0-.76-.22-1.44-.21-.68-.65-1.2-.43-.51-1.09-.8-.67-.3-1.55-.3-1.71 0-2.69.98-.99.97-1.26 2.76m10.08 2.39h-10.16q.1 1.26.45 2.18t.93 1.52q.57.6 1.37.9.79.29 1.75.29t1.65-.22q.7-.22 1.22-.5.52-.27.91-.49.39-.23.76-.23.5 0 .74.37l1.13 1.44q-.65.77-1.47 1.29-.81.52-1.7.83t-1.81.44-1.78.13q-1.72 0-3.19-.57t-2.56-1.68-1.71-2.75-.62-3.8q0-1.68.54-3.16t1.56-2.58q1.02-1.09 2.48-1.73t3.3-.64q1.56 0 2.87.49 1.31.5 2.25 1.45.95.95 1.48 2.34.54 1.38.54 3.16 0 .89-.19 1.21-.19.31-.74.31m14.19 2.85v-7.36q-.67-.82-1.46-1.16-.79-.33-1.7-.33-.9 0-1.62.33-.72.34-1.23 1.02t-.79 1.73q-.27 1.05-.27 2.47 0 1.44.23 2.44.24 1 .67 1.63t1.05.91q.63.28 1.4.28 1.23 0 2.09-.51.87-.51 1.63-1.45m0-18.92h3.96v23.78h-2.42q-.78 0-.99-.72l-.34-1.58q-.99 1.13-2.28 1.84-1.29.7-3 .7-1.34 0-2.46-.56t-1.93-1.62q-.81-1.07-1.25-2.64-.44-1.56-.44-3.58 0-1.82.5-3.39.49-1.57 1.42-2.72t2.23-1.8q1.29-.65 2.91-.65 1.37 0 2.35.43t1.74 1.17z"/></svg>