<svg xmlns="http://www.w3.org/2000/svg" width="100" height="60" viewBox="0 0 100 60"><rect width="100%" height="100%" fill="#cccccc"/><path fill="#ffffff" d="M27.545 25.73h1.22v8.68h-1.42v-5.6q0-.34.04-.73l-2.63 4.93q-.18.35-.57.35h-.22q-.39 0-.57-.35l-2.65-4.95q.01.2.03.39.01.19.01.36v5.6h-1.42v-8.68h1.21q.11 0 .19.01t.14.03.11.08q.06.05.1.14l2.6 4.82q.1.19.19.4.09.2.17.42.08-.23.18-.43.08-.21.19-.4l2.56-4.81q.05-.09.1-.14.05-.06.12-.08.06-.02.14-.03t.18-.01m5.64 2.43q.69 0 1.25.22t.96.63.61 1q.22.58.22 1.31t-.22 1.32q-.21.59-.61 1-.4.42-.96.64t-1.25.22q-.68 0-1.25-.22-.56-.22-.96-.64-.4-.41-.62-1t-.22-1.32.22-1.31q.22-.59.62-1t.96-.63q.57-.22 1.25-.22m0 5.2q.77 0 1.14-.52.37-.51.37-1.51 0-.99-.37-1.52-.37-.52-1.14-.52-.78 0-1.15.53-.38.52-.38 1.51t.38 1.51q.37.52 1.15.52m5.48-4.73.09.69q.29-.55.69-.87.39-.31.93-.31.43 0 .69.19l-.1 1.11q-.03.1-.09.15-.05.04-.15.04-.09 0-.27-.03-.17-.03-.34-.03-.25 0-.44.08-.19.07-.34.2-.16.14-.27.33-.12.19-.22.44v3.79h-1.49v-6.16h.88q.22 0 .31.08.09.09.12.3m4.34 1.99h2.8q0-.28-.08-.54-.08-.25-.25-.45-.16-.19-.41-.3t-.58-.11q-.64 0-1.01.37-.37.36-.47 1.03m3.78.9h-3.81q.04.47.17.82.13.34.35.57.21.22.51.33t.66.11.62-.08.45-.19q.2-.1.35-.18.14-.09.28-.09.19 0 .28.14l.42.54q-.24.29-.55.49-.3.19-.64.31-.33.11-.68.16-.34.05-.66.05-.65 0-1.2-.21-.55-.22-.96-.63-.41-.42-.64-1.04-.23-.61-.23-1.42 0-.63.2-1.19.2-.55.58-.96.39-.41.93-.65.55-.24 1.24-.24.59 0 1.08.18.49.19.84.55.36.35.56.87t.2 1.19q0 .33-.07.45t-.28.12m10.57.84q.13 0 .23.11l.64.69q-.53.65-1.3 1t-1.85.35q-.97 0-1.74-.33t-1.32-.92q-.54-.59-.83-1.41-.29-.81-.29-1.78 0-.98.31-1.79t.88-1.4q.56-.59 1.35-.92.79-.32 1.74-.32t1.68.31q.74.31 1.25.82l-.54.75q-.04.07-.12.12-.07.06-.21.06-.09 0-.18-.06-.1-.05-.21-.12-.12-.08-.27-.17t-.34-.16q-.2-.08-.46-.13t-.61-.05q-.58 0-1.06.21t-.83.6-.54.96-.19 1.29q0 .73.2 1.3.21.57.56.96.36.39.84.6t1.03.21q.33 0 .6-.04.26-.03.49-.11.22-.08.42-.2.21-.13.4-.31.06-.05.13-.08.07-.04.14-.04m5 .46v-1.04q-.65.03-1.08.11-.44.08-.71.21-.26.13-.37.29-.12.17-.12.37 0 .39.23.56t.61.17q.45 0 .78-.17.34-.16.66-.5m-3.14-3.23-.26-.48q1.06-.97 2.56-.97.54 0 .96.18.43.17.72.49.3.31.45.75t.15.96v3.89h-.67q-.21 0-.32-.06-.12-.07-.18-.26l-.14-.44q-.23.21-.45.37t-.46.26q-.24.11-.52.17-.27.06-.6.06-.39 0-.72-.11-.33-.1-.57-.31t-.37-.53q-.13-.31-.13-.72 0-.24.07-.47.08-.23.26-.44t.46-.39q.28-.19.69-.33t.96-.22q.54-.09 1.25-.11v-.36q0-.62-.27-.91-.26-.3-.76-.3-.36 0-.6.08-.23.09-.41.19-.18.11-.33.19-.15.09-.33.09-.15 0-.26-.08-.11-.09-.18-.19m7.28-.96.09.69q.29-.55.69-.87.39-.31.93-.31.43 0 .69.19l-.1 1.11q-.03.1-.09.15-.05.04-.15.04-.09 0-.27-.03-.17-.03-.34-.03-.25 0-.44.08-.19.07-.35.2-.15.14-.27.33-.11.19-.22.44v3.79h-1.48v-6.16h.87q.23 0 .32.08.09.09.12.3m7.03 3.96v-2.76q-.25-.31-.55-.44-.29-.12-.63-.12t-.61.12q-.27.13-.46.39-.19.25-.3.64-.1.4-.1.93 0 .54.09.91.08.38.25.62.16.23.39.34.24.1.53.1.46 0 .78-.19.33-.19.61-.54m0-7.1h1.48v8.92h-.9q-.29 0-.37-.27l-.13-.59q-.37.42-.85.69-.49.26-1.13.26-.5 0-.92-.21t-.73-.61q-.3-.4-.46-.99-.17-.58-.17-1.34 0-.68.19-1.27.18-.59.53-1.02t.84-.68q.48-.24 1.09-.24.51 0 .88.16t.65.44zm7.04 3.43-.34.53q-.06.1-.12.14-.07.04-.17.04-.11 0-.23-.06t-.29-.14q-.16-.07-.36-.13-.21-.06-.49-.06-.44 0-.69.18-.25.19-.25.49 0 .2.13.33.13.14.34.24.22.1.49.18.26.08.54.18t.55.22.49.31q.21.19.34.45.13.27.13.64 0 .44-.16.82-.16.37-.47.65-.32.27-.77.42-.46.16-1.06.16-.32 0-.62-.06-.31-.06-.59-.16t-.51-.24q-.24-.14-.42-.3l.34-.56q.07-.11.16-.16t.23-.05.26.07q.12.08.28.17.17.09.38.17.22.08.56.08.26 0 .45-.07.19-.06.31-.16.13-.1.18-.24.06-.13.06-.28 0-.21-.13-.35t-.34-.24-.49-.18q-.27-.08-.55-.18-.29-.1-.56-.23-.27-.12-.49-.32-.21-.2-.34-.49t-.13-.69q0-.38.15-.72.15-.35.44-.6.29-.26.73-.41.43-.15 1-.15.64 0 1.16.21t.87.55"/></svg>