<svg xmlns="http://www.w3.org/2000/svg" width="100" height="60" viewBox="0 0 100 60"><rect width="100%" height="100%" fill="#ff9900"/><path fill="#ffffff" d="M23.55 31.435h3.91l-1.49-4.09q-.11-.27-.23-.65-.12-.37-.24-.8-.11.43-.23.81t-.23.66zm3.12-7.65 4.83 12.29h-1.77q-.29 0-.48-.15t-.28-.37l-.92-2.51h-5.09l-.92 2.51q-.07.2-.26.36-.2.16-.49.16h-1.78l4.83-12.29zm7.87 12.29h-2.1v-8.72h1.29q.41 0 .53.38l.14.65q.23-.26.48-.47t.54-.37q.28-.15.61-.24.32-.09.72-.09.82 0 1.35.45t.8 1.18q.2-.43.51-.74.3-.31.67-.5.36-.2.78-.29.41-.1.82-.1.73 0 1.29.22t.94.65q.38.42.58 1.04.2.61.2 1.4v5.55h-2.1v-5.55q0-.83-.36-1.25-.37-.43-1.07-.43-.33 0-.6.12-.28.11-.49.31-.2.21-.32.53-.12.31-.12.72v5.55h-2.11v-5.55q0-.88-.35-1.28-.36-.4-1.04-.4-.46 0-.85.23-.4.23-.74.62zm16.75-2.25v-1.47q-.91.04-1.53.15-.62.12-1 .3-.37.18-.53.41-.16.24-.16.52 0 .55.32.79.33.24.86.24.65 0 1.12-.23.47-.24.92-.71m-4.44-4.58-.37-.68q1.5-1.37 3.62-1.37.76 0 1.37.25.6.25 1.02.7.41.44.63 1.06t.22 1.36v5.51h-.95q-.3 0-.46-.09t-.26-.36l-.19-.63q-.33.3-.64.52-.32.23-.66.38t-.72.24q-.39.08-.86.08-.55 0-1.02-.15-.46-.15-.8-.45t-.53-.74-.19-1.03q0-.33.11-.66.11-.32.36-.62t.65-.56.99-.46q.58-.2 1.35-.32t1.77-.15v-.51q0-.87-.37-1.29-.38-.43-1.08-.43-.51 0-.85.12t-.59.27q-.26.15-.46.27-.21.12-.47.12-.22 0-.37-.12-.15-.11-.25-.26m14.72-1.89v.87q0 .22-.07.43-.08.21-.21.35l-4.14 5.45h4.3v1.62h-6.74v-.88q0-.14.07-.34t.21-.38l4.18-5.51h-4.21v-1.61zm5.41-.14q.97 0 1.76.32.8.31 1.36.89.57.58.88 1.41.3.83.3 1.86 0 1.04-.3 1.87-.31.84-.88 1.42-.56.59-1.36.9-.79.32-1.76.32-.98 0-1.78-.32-.8-.31-1.36-.9-.57-.58-.88-1.42-.31-.83-.31-1.87 0-1.03.31-1.86t.88-1.41q.56-.58 1.36-.89.8-.32 1.78-.32m0 7.37q1.09 0 1.61-.73t.52-2.14-.52-2.15-1.61-.74q-1.1 0-1.64.74-.53.75-.53 2.15t.53 2.14q.54.73 1.64.73m7.73-6.85.14.69q.26-.26.56-.49.29-.22.62-.38t.7-.25.82-.09q.71 0 1.26.25.55.24.92.68.37.43.57 1.04.19.61.19 1.34v5.55h-2.1v-5.55q0-.8-.37-1.24-.36-.44-1.11-.44-.55 0-1.02.25-.48.25-.9.67v6.31h-2.1v-8.72h1.28q.41 0 .54.38"/></svg>