<svg xmlns="http://www.w3.org/2000/svg" width="100" height="60" viewBox="0 0 100 60"><rect width="100%" height="100%" fill="#0070ba"/><path fill="#ffffff" d="M23.83 28.565h2.01q.74 0 1.29-.19.55-.18.92-.53.36-.34.54-.84.18-.49.18-1.1 0-.58-.18-1.05t-.54-.8-.91-.51q-.55-.17-1.3-.17h-2.01zm-2.69-7.27h4.7q1.45 0 2.51.34t1.75.95 1.02 1.46q.34.85.34 1.86 0 1.05-.35 1.93-.35.87-1.05 1.5t-1.76.98q-1.05.35-2.46.35h-2.01v5.09h-2.69zm17.41 11.81v-1.73q-1.07.05-1.8.18-.73.14-1.17.35t-.63.49-.19.61q0 .65.39.93.38.28 1 .28.76 0 1.32-.27.55-.28 1.08-.84m-5.22-5.39-.44-.79q1.77-1.62 4.26-1.62.9 0 1.61.3.71.29 1.2.81.49.53.75 1.26.25.73.25 1.6v6.48h-1.12q-.35 0-.54-.1-.19-.11-.3-.43l-.22-.74q-.39.35-.76.61-.37.27-.77.45t-.85.28q-.46.09-1.01.09-.65 0-1.2-.17-.55-.18-.95-.53t-.62-.87-.22-1.21q0-.39.13-.78.13-.38.43-.73.29-.35.76-.66t1.16-.54q.68-.23 1.59-.38.91-.14 2.08-.17v-.6q0-1.03-.44-1.53-.44-.49-1.27-.49-.6 0-.99.14-.4.14-.7.32-.3.17-.54.31-.25.14-.55.14-.26 0-.44-.14-.18-.13-.29-.31m17.29-2.22h1.98l-5.59 13.08q-.11.26-.28.39-.18.14-.54.14h-1.84l1.92-4.12-4.15-9.49h2.17q.29 0 .46.14.16.14.24.32l2.18 5.32q.11.27.19.54.07.27.14.55l.18-.56q.09-.27.2-.54l2.06-5.31q.08-.2.27-.33.18-.13.41-.13m6.29 3.07h2.01q.74 0 1.29-.19.55-.18.92-.53.36-.34.54-.84.18-.49.18-1.1 0-.58-.18-1.05t-.54-.8-.91-.51q-.55-.17-1.3-.17h-2.01zm-2.69-7.27h4.7q1.45 0 2.51.34t1.75.95 1.03 1.46q.33.85.33 1.86 0 1.05-.35 1.93-.35.87-1.05 1.5t-1.75.98q-1.06.35-2.47.35h-2.01v5.09h-2.69zm17.41 11.81v-1.73q-1.07.05-1.8.18-.73.14-1.17.35t-.63.49-.19.61q0 .65.39.93.38.28 1 .28.76 0 1.32-.27.55-.28 1.08-.84m-5.22-5.39-.44-.79q1.77-1.62 4.26-1.62.9 0 1.61.3.71.29 1.2.81.49.53.75 1.26.25.73.25 1.6v6.48h-1.12q-.35 0-.54-.1-.19-.11-.3-.43l-.22-.74q-.39.35-.76.61-.37.27-.77.45t-.85.28q-.46.09-1.01.09-.65 0-1.2-.17-.55-.18-.95-.53t-.62-.87-.22-1.21q0-.39.13-.78.13-.38.43-.73.29-.35.76-.66t1.16-.54q.68-.23 1.59-.38.91-.14 2.08-.17v-.6q0-1.03-.44-1.53-.44-.49-1.27-.49-.6 0-.99.14-.4.14-.7.32-.3.17-.54.31-.25.14-.55.14-.26 0-.44-.14-.18-.13-.29-.31m9.98-6.82h2.47v14.86h-2.47z"/></svg>